<?xml version="1.0" encoding="utf-8"?>
<!-- Generator: Adobe Illustrator 26.0.3, SVG Export Plug-In . SVG Version: 6.00 Build 0)  -->
<svg version="1.1" id="Layer_1" xmlns="http://www.w3.org/2000/svg" xmlns:xlink="http://www.w3.org/1999/xlink" x="0px" y="0px"
	 viewBox="0 0 1809.9 200.8" style="enable-background:new 0 0 1809.9 200.8;" xml:space="preserve">
<style type="text/css">
	.st0{fill:#FFFFFF;}
</style>
<g>
	<path class="st0" d="M394.1,159.5c0.3-3.6-0.7-7.5-3.2-11.4l-32.3-48.4l30.5-47.1l0.4-0.8c0.7-1.4,2.1-4.2,2.1-8.1
		c0-2.4-0.5-4.7-1.3-6.8c0.1-0.5,0.1-1.1,0.1-1.6c0-4.7-1.8-9.2-5-12.3c-3.2-3.2-7.7-5-12.3-5h-32.2c-5.6,0-10.8,2.1-14.4,5.7
		l-3.5,3.5l-7.5,11.7l-6.3-10c-1.3-2.2-2.8-3.8-4.2-5.1c-3.6-3.6-8.9-5.7-14.4-5.7h-34c-4.7,0-9.2,1.8-12.3,5c-3.2,3.2-5,7.7-5,12.3
		c0,3.9,1.4,6.8,2.1,8.1l0.1,0.3c0,0,0,0,0,0c0,3.9,1.4,6.7,2.1,8.1l0.2,0.4l28.1,45.1l-8.6,13l-27.5-77.3c-1.2-4-3.4-7.4-6.5-10
		c-5.6-5-12-5-14.1-5h-34.3c-4.9,0-9.5,1.5-13.4,4.5l-0.6,0.4l-0.9,0.8c-1.9,1.9-4.5,4.8-5.8,9.3l-0.6,1.8
		c-0.3-4.4-2.1-8.3-5.3-11.4c-3.6-3.6-7.9-5.4-13-5.4h-105c-5.1,0-9.5,1.8-13,5.4c-3.6,3.6-5.4,7.9-5.4,13v24.8
		c0,4.4,1.4,8.3,4,11.5c0.6,3.7,2.3,6.9,5,9.6c3.5,3.5,7.9,5.3,13,5.3h15.5V157c0,4.3,1.3,8.1,3.8,11.3c0.7,3.5,2.3,6.6,5,9.3
		c3.5,3.5,7.9,5.3,13,5.3H108c5.1,0,9.4-1.8,13-5.3c0.7-0.7,1.3-1.4,1.8-2.1c0.5,0.8,1.1,1.5,1.8,2.1c3.2,3.2,7.6,5,12.3,5h28.5
		c6,0,10.8-1.8,14.4-5.3c1.9-1.9,3.5-4.1,4.6-6.3l0.2-0.5l3-7.8h26.3l2.8,7.5l0.4,0.8c1.1,2.1,2.7,4.4,4.6,6.3
		c3.5,3.5,8.2,5.3,14,5.3h53.5c5.5,0,10.7-2.1,14.4-5.7c1.3-1.3,2.8-2.8,4.1-5l8.5-13l8.9,13.1c1.2,2.1,2.7,3.5,4,4.8
		c3.6,3.6,8.8,5.7,14.3,5.7h34.8c4.7,0,8.1-1.9,10.2-3.3l0.1-0.1C394.1,175.3,397.4,167.6,394.1,159.5z M385.3,168.7l-0.1,0.1
		c-1.9,1.3-4.6,2.7-8.3,2.7h-35c-4.6,0-9-1.7-12-4.7c-1.2-1.2-2.5-2.5-3.6-4.3l-12-17.7l-11.5,17.6c-1,1.8-2.3,3.1-3.6,4.4
		c-3,3-7.3,4.7-12,4.7h-53.9c-1.8,0-7.3,0-11.6-4.3c-1.6-1.6-3.1-3.6-4-5.4l-0.2-0.5l-3.7-9.8h-31.3l-3.7,9.8l-0.2,0.5
		c-0.9,1.8-2.3,3.8-4,5.4c-2.9,2.9-6.9,4.3-12,4.3h-28.7c-3.7,0-7.3-1.5-9.9-4s-4-6.1-4-9.9c0-0.9,0-3.3,1.3-5.8l28-78.3
		c-2,1.3-4.6,2.4-7.4,2.4h-22.2v81c0,4.1-1.5,7.7-4.3,10.6c-2.9,2.9-6.4,4.3-10.6,4.3H73.7c-4.1,0-7.7-1.5-10.6-4.3
		c-2.9-2.9-4.3-6.4-4.3-10.6V76H36.3c-4.1,0-7.7-1.5-10.6-4.3c-2.9-2.9-4.3-6.4-4.3-10.6V36.2c0-4.1,1.5-7.7,4.3-10.6
		c2.9-2.9,6.4-4.3,10.6-4.3h105c4.1,0,7.7,1.5,10.6,4.3c2.9,2.9,4.3,6.4,4.3,10.6v18.4l7.4-20.7c1.1-3.7,3.2-6.2,4.9-7.9l0.5-0.5
		l0.6-0.4c3.3-2.5,7.2-3.7,11.2-3.7h34.3c1.8,0,7.2,0,11.8,4.2c2.6,2.1,4.5,5,5.4,8.4l29.9,84l15.2-23l-32.9-52.7l-0.2-0.4
		c-0.6-1.2-1.8-3.5-1.8-6.6c0-3.7,1.5-7.3,4-9.9c2.5-2.5,6.1-4,9.9-4h34c4.6,0,9,1.7,12,4.7c1.3,1.3,2.6,2.6,3.7,4.5l9.3,14.8
		l10.3-16l3.2-3.2c3-3,7.3-4.7,12-4.7H373c3.7,0,7.3,1.5,9.9,4c2.5,2.5,4,6.1,4,9.9c0,3.1-1.1,5.4-1.8,6.6l-0.2,0.5L351,94.6
		l37,55.4C393,157.6,390.3,165.3,385.3,168.7z M126.3,127.8V87.6h14.4L126.3,127.8z"/>
	<polygon class="st0" points="197.8,100.4 197.8,100.4 197.8,100.4 	"/>
</g>
<g>
	<polygon class="st0" points="851.8,100.6 851.8,100.6 851.8,100.6 	"/>
	<path class="st0" d="M534.7,103.1c-3.2,4.5-6.9,8.5-10.9,11.8l14.5,27.7v-46c-0.9,2.2-2.1,4.2-3.3,6.2L534.7,103.1z M534.8,128.3
		l-3.7-7.1c1.3-1.3,2.5-2.7,3.7-4.1V128.3z"/>
	<path class="st0" d="M1136.7,122.1L1136.7,122.1c-1.4-1.4-2.8-2.5-4.4-3.3c0.1-0.3,0.1-0.5,0.2-0.8c2.7-3.3,4-7.1,4-11.5V86.1
		c0-3.6-0.9-6.9-2.7-9.7c1.5-2.1,2.5-4.5,2.9-7.1c2.6-3.3,4-7.1,4-11.5V35.7c0-5.1-1.8-9.5-5.4-13c-3.6-3.6-7.9-5.4-13-5.4h-91.3
		c-3.4,0-6.6,0.8-9.3,2.5c-2.7-1.4-5.6-2.1-8.5-2.1h-105c-5.1,0-9.5,1.8-13,5.4c-2.9,2.9-4.6,6.3-5.2,10.2l-0.1-0.2
		c-1.2-4-3.4-7.4-6.5-10c-5.6-5-12-5-14.1-5h-34.3c-4.9,0-9.5,1.5-13.4,4.5l-0.6,0.4l-0.9,0.8c-1.9,1.9-4.5,4.8-5.8,9.3l-24,67
		c-0.6-0.9-1.2-1.9-1.8-2.7c-0.4-0.5-0.7-1-1.1-1.5c0.1-0.3,0.3-0.5,0.4-0.8c2.1-4,3.3-8.6,3.7-13.8c1-3.5,1.5-7.3,1.5-11.5
		c0-10.7-2.5-20.1-7.3-27.8c-5-8-12.3-13.9-22.2-18.2c-8.9-3.8-19.6-5.6-33-5.6h-59.5c-5.1,0-9.4,1.8-13,5.3
		c-0.2-0.2-0.4-0.4-0.6-0.6c-3.6-3.6-7.9-5.4-13-5.4h-91.3c-5.1,0-9.5,1.8-13,5.4c-3.6,3.6-5.4,7.9-5.4,13v5.1
		c-2.4-3-5.1-5.7-8.1-8.2l-0.2-0.1C514.3,22.9,498.1,18,478.3,18h-53.5c-5.1,0-9.5,1.8-13,5.4c-3.6,3.6-5.4,7.9-5.4,13v121.1
		c0,2.3,0.4,4.5,1.1,6.5v1c0,5.1,1.8,9.4,5.3,13c3.5,3.5,7.9,5.3,13,5.3H456c5.1,0,9.4-1.8,13-5.3c3.5-3.5,5.3-7.9,5.3-13v-6.9
		l5.9,12.2c1.3,3.3,3.6,6.2,6.7,8.6c3.9,2.9,8.4,4.4,13.3,4.4h31.3c4.2,0,8.2-1.5,11.3-4c3.1,2.2,6.6,3.3,10.7,3.3h92.5
		c4.6,0,8.6-1.5,12-4.4c3.5,3.4,7.8,5.1,12.7,5.1h60.8c12.8,0,23-1.8,32.2-5.5l0.2-0.1c2.7-1.1,5.2-2.5,7.7-4c0.8,1.5,1.8,2.8,2.9,4
		c3.2,3.2,7.6,5,12.3,5h28.5c6,0,10.8-1.8,14.4-5.3c1.9-1.9,3.5-4.1,4.6-6.3l0.2-0.5l3-7.8h26.3l2.8,7.5l0.4,0.8
		c1.1,2.2,2.7,4.4,4.6,6.3c3.5,3.5,8.2,5.3,14,5.3h28.5c4.6,0,9.1-1.8,12.3-5c0.7-0.7,1.3-1.4,1.8-2.1c0.6,0.7,1.2,1.4,1.8,2.1
		c3.5,3.5,7.9,5.3,13,5.3h30.9c5.1,0,9.4-1.8,13-5.3c2.9-2.9,4.7-6.5,5.2-10.5c1.9-2.9,2.9-6.3,2.9-10V87.8h14.9v76.6
		c0,5.1,1.8,9.4,5.3,13c3.5,3.5,7.9,5.3,13,5.3h92.1c5.1,0,9.4-1.8,13-5.3c2.5-2.5,4.1-5.5,4.9-8.8c2.8-3.3,4.2-7.2,4.2-11.7v-21.7
		C1142.1,130.2,1140.1,125.5,1136.7,122.1z M1138.6,156.8c0,4.1-1.5,7.7-4.3,10.6c-2.9,2.9-6.4,4.3-10.6,4.3h-92.8
		c-4.1,0-7.7-1.5-10.6-4.3c-2.9-2.9-4.3-6.4-4.3-10.6V76c-0.8,0.1-1.7,0.2-2.6,0.2h-22.2v81c0,4.1-1.5,7.7-4.3,10.6
		c-2.9,2.9-6.4,4.3-10.6,4.3h-31.1c-4.1,0-7.7-1.5-10.6-4.3c-2.9-2.9-4.3-6.4-4.3-10.6v-81h-22.2c-2.6,0-5.1-0.6-7.2-1.8l27.8,77.8
		c0.8,1.7,1.3,3.6,1.3,5.7c0,3.7-1.5,7.3-4,9.9c-2.5,2.5-6.1,4-9.9,4h-28.7c-1.8,0-7.3,0-11.6-4.3c-1.6-1.6-3-3.5-4-5.4l-0.2-0.5
		l-3.7-9.8h-31.3l-3.7,9.8l-0.2,0.5c-0.9,1.8-2.3,3.8-4,5.4c-2.9,2.9-6.9,4.3-12,4.3H788c-3.7,0-7.3-1.5-9.9-4
		c-1.9-1.9-3.1-4.3-3.7-7c-3.3,2.5-6.9,4.6-10.9,6.3l-0.2,0.1c-8.8,3.6-18.7,5.3-31.1,5.3h-61.2c-4.1,0-7.7-1.5-10.6-4.3
		c-0.8-0.8-1.5-1.7-2.1-2.6c-0.5,0.7-1,1.3-1.6,1.9c-2.9,2.9-6.4,4.3-10.6,4.3h-93.1c-4.1,0-7.7-1.5-10.6-4.3
		c-0.1-0.1-0.2-0.3-0.4-0.4c-0.4,0.5-0.8,1-1.2,1.5c-2.5,2.5-6.1,4-9.9,4h-31.5c-4.1,0-8-1.3-11.3-3.8c-2.7-2-4.6-4.4-5.7-7.2
		l-12.6-26.2v22.3c0,4.1-1.5,7.7-4.3,10.6c-2.9,2.9-6.4,4.3-10.6,4.3h-30.5c-4.1,0-7.7-1.5-10.6-4.3c-2.9-2.9-4.3-6.4-4.3-10.6V36.4
		c0-4.1,1.5-7.7,4.3-10.6c2.9-2.9,6.4-4.3,10.6-4.3h53.5c19,0,34.5,4.6,46.1,13.7l0.1,0.1c6.1,5,10.8,11.1,13.8,18.2V35.7
		c0-4.1,1.5-7.7,4.3-10.6c2.9-2.9,6.4-4.3,10.6-4.3h91.3c4.1,0,7.7,1.5,10.6,4.3c1.2,1.2,2.2,2.6,2.9,4.1c0.7-1.2,1.5-2.4,2.6-3.4
		c2.9-2.9,6.4-4.3,10.6-4.3h59.5c12.8,0,23.2,1.8,31.6,5.4c9.3,4,16,9.5,20.6,16.8c4.5,7.2,6.8,15.9,6.8,25.9c0,6-1.2,11.3-3.5,15.7
		c-1.3,2.9-3.1,5.6-5.2,8c1.7,1.8,3.3,3.7,4.8,5.9c2.2,3.1,3.9,6.5,5,10.1l26.9-75.2c1.1-3.7,3.2-6.2,4.9-7.9l0.5-0.5l0.6-0.4
		c3.3-2.5,7.2-3.8,11.3-3.8h34.3c1.8,0,7.2,0,11.8,4.2c2.6,2.1,4.5,5,5.4,8.4l6.7,18.7V36.1c0-4.1,1.5-7.7,4.3-10.6
		c2.9-2.9,6.4-4.3,10.6-4.3h105c3,0,6.1,1,8.6,2.8c2.6-2.1,5.7-3.1,9.2-3.1h91.3c4.1,0,7.7,1.5,10.6,4.3c2.9,2.9,4.3,6.4,4.3,10.6
		v22.1c0,4.1-1.5,7.7-4.3,10.6c-2.4,2.4-5.2,3.8-8.5,4.2c1.6,0.7,3,1.7,4.3,3c2.9,2.9,4.3,6.4,4.3,10.6v20.3c0,4.1-1.5,7.7-4.3,10.6
		c-1.4,1.4-3,2.5-4.8,3.2c4.1,0,7.6,1.5,10.4,4.3c0,0,0,0,0,0c2.8,2.8,4.3,6.6,4.3,10.6V156.8z M924.5,87.8V130l-15.1-42.2H924.5z"
		/>
</g>
<g>
	<g>
		<path class="st0" d="M144.8,64.6c1.1-1,1.4-2.1,1.4-3.5V36.2c0-1.4-0.3-2.5-1.4-3.5c-1.1-1.1-2.1-1.4-3.5-1.4h-105
			c-1.4,0-2.4,0.4-3.5,1.4c-1.1,1-1.4,2.1-1.4,3.5v24.8c0,1.4,0.3,2.5,1.4,3.5c1.1,1,2.1,1.4,3.5,1.4h32.6v91c0,1.4,0.3,2.4,1.4,3.5
			s2.1,1.4,3.5,1.4h31.2c1.4,0,2.4-0.4,3.5-1.4s1.4-2.1,1.4-3.5V66H142C142.7,66,144.1,65.3,144.8,64.6z"/>
		<path class="st0" d="M379.6,155.6L339,94.7l37.1-57.4c0.4-0.7,0.7-1.4,0.7-2.1c0-1-0.4-2.1-1.1-2.8c-0.7-0.7-1.8-1.1-2.8-1.1
			h-32.2c-2.1,0-3.9,0.7-4.9,1.7c-1.1,1.1-2.1,2.1-2.5,2.5l-18.2,28.3l-17.9-28.4c-0.4-0.7-1.1-1.4-2.1-2.5c-1.1-1-2.8-1.7-4.9-1.7
			h-34c-1.1,0-2.1,0.4-2.8,1.1c-0.7,0.7-1.1,1.8-1.1,2.8c0,0.7,0.4,1.4,0.7,2.1L289.3,95l-29.8,45.2L222.8,36.9
			c-0.4-1.4-1.1-2.8-2.4-3.9c-1.4-1.4-3.1-1.7-5.2-1.7h-34.3c-2.1,0-3.9,0.7-5.2,1.7c-1.4,1.4-2.1,2.5-2.4,3.9l-42.7,119.3
			c-0.4,0.4-0.4,0.7-0.4,1.4c0,1.1,0.4,2.1,1.1,2.8c0.7,0.7,1.8,1,2.8,1h28.7c2.1,0,3.8-0.3,4.9-1.4c1.1-1.1,1.8-2.1,2.1-2.8
			l5.9-15.8h45.2l5.9,15.8c0.4,0.7,1.1,1.8,2.1,2.8c1.1,1,2.4,1.4,4.6,1.4h19.9h8.8h25.2c2.1,0,3.9-0.7,4.9-1.8c1-1,1.8-1.8,2.1-2.4
			l19.9-30.5l20.6,30.5c0.4,0.7,1.1,1.4,2.1,2.4c1.1,1.1,2.8,1.8,4.9,1.8h35c1.1,0,1.8-0.3,2.8-1C379.6,160.5,381.9,159,379.6,155.6
			z M184,110.4l13.7-42l14,42H184z"/>
	</g>
	<g>
		<path class="st0" d="M510.8,111.7c6.3-3.5,11.5-8.4,15.8-14.3c3.8-5.9,6-13.7,6-22.1c0-13.7-4.9-24.5-14.3-32.2
			c-9.8-7.7-23.1-11.5-39.9-11.5h-53.6c-1.4,0-2.5,0.3-3.5,1.4c-1,1-1.4,2.1-1.4,3.5v121.1c0,1.4,0.4,2.4,1.4,3.5
			c1,1.1,2.1,1.4,3.5,1.4h30.5c1.4,0,2.4-0.4,3.5-1.4c1-1.1,1.4-2.1,1.4-3.5V119h13.3l18.6,38.5c0.3,1.1,1,2.1,2.4,3.2
			c1.4,1.1,3.2,1.8,5.2,1.8h31.5c1,0,2.1-0.4,2.8-1.1c0.7-0.7,1-1.8,1-2.8c0-0.7-0.3-1.4-0.7-2.1L510.8,111.7z M487.7,84
			c-2.1,2.4-5.2,3.5-9.8,3.5h-17.9V61.3h17.9c4.5,0,7.7,1.4,9.8,3.8c2.1,2.5,3.1,6,3.1,9.4C490.9,78.8,489.8,81.6,487.7,84z"/>
		<path class="st0" d="M645.9,130.2h-59.1v-18.9h53.5c1.4,0,2.5-0.3,3.5-1.4s1.4-2.1,1.4-3.5V86.1c0-1.4-0.4-2.4-1.4-3.5
			s-2.1-1.4-3.5-1.4h-53.5V62.7h57.8c1.4,0,2.4-0.3,3.5-1.4c1-1,1.4-2.1,1.4-3.5v-22c0-1.4-0.3-2.5-1.4-3.5c-1.1-1-2.1-1.4-3.5-1.4
			h-91.4c-1.4,0-2.5,0.3-3.5,1.4c-1,1-1.4,2.1-1.4,3.5v121.1c0,1.4,0.3,2.4,1.4,3.5c1,1.1,2.1,1.4,3.5,1.4h93.1
			c1.4,0,2.4-0.4,3.5-1.4c1-1.1,1.4-2.1,1.4-3.5v-21.7c0-1.4-0.3-2.4-1.4-3.5C648.7,130.9,647.3,130.2,645.9,130.2z"/>
		<path class="st0" d="M764.6,93.8c2.1-1.1,4.2-2.4,6.7-4.9c2.4-2.1,4.5-4.9,5.9-8.1c1.8-3.2,2.5-7,2.5-11.2c0-8-1.8-15-5.2-20.7
			c-3.5-5.6-8.8-9.8-16.1-13c-7.4-3.2-16.5-4.5-27.7-4.5h-59.5c-1.4,0-2.5,0.3-3.5,1.4c-1,1-1.4,2.1-1.4,3.5v121.1
			c0,1.4,0.4,2.4,1.4,3.5c1,1.1,2.1,1.4,3.5,1.4h61.2c10.8,0,19.6-1.4,27.3-4.6c7.4-3.2,13-7.7,17.2-13.7c3.8-5.9,6-13.3,6-22.1
			c0-6.3-1.8-12.2-5.2-17.2C773.7,99.4,769.5,95.9,764.6,93.8z M706.5,59.5h19.9c3.9,0,7,1,8.8,3.5c1.8,2.1,2.8,4.9,2.8,7.7
			c0,3.1-1.1,5.6-2.8,7.7c-1.8,2.1-4.9,3.5-8.8,3.5h-19.9V59.5z M737.6,129.9c-2.1,2.4-5.2,3.8-9.5,3.8h-21.7v-24.5h21.7
			c3.9,0,7,1.1,9.1,3.5c2.1,2.4,3.1,5.2,3.1,8.4C740.8,124.6,739.7,127.4,737.6,129.9z"/>
		<path class="st0" d="M876.9,37.1c-0.3-1.4-1-2.8-2.4-3.8c-1.4-1.4-3.2-1.8-5.2-1.8h-34.3c-2.1,0-3.8,0.7-5.2,1.8
			c-1.4,1.4-2.1,2.5-2.4,3.8l-42.7,119.3c-0.4,0.4-0.4,0.7-0.4,1.4c0,1.1,0.4,2.1,1.1,2.8c0.7,0.7,1.8,1.1,2.8,1.1h28.7
			c2.1,0,3.8-0.3,4.9-1.4c1-1.1,1.8-2.1,2.1-2.8l5.9-15.8h45.2l5.9,15.8c0.4,0.7,1.1,1.8,2.1,2.8c1,1.1,2.5,1.4,4.5,1.4h28.7
			c1,0,2.1-0.3,2.8-1.1c0.7-0.7,1.1-1.8,1.1-2.8c0-0.3,0-1.1-0.4-1.4L876.9,37.1z M838.1,110.6l13.6-42l14,42H838.1z"/>
		<path class="st0" d="M1013.1,31.2h-105c-1.4,0-2.5,0.3-3.5,1.4c-1.1,1-1.4,2.1-1.4,3.5v25.2c0,1.4,0.4,2.5,1.4,3.5
			c1,1,2.1,1.4,3.5,1.4h32.2v91c0,1.4,0.4,2.4,1.4,3.5c1.1,1.1,2.1,1.4,3.5,1.4h31.2c1.4,0,2.4-0.3,3.5-1.4c1-1.1,1.4-2.1,1.4-3.5
			v-91h32.2c1.4,0,2.4-0.3,3.5-1.4c1-1,1.4-2.1,1.4-3.5V36.4c0-1.4-0.4-2.5-1.4-3.5C1015.9,31.9,1014.5,31.2,1013.1,31.2z"/>
		<path class="st0" d="M1127.2,131.6c-1.1-1.1-2.1-1.4-3.5-1.4h-59.1v-18.9h53.5c1.4,0,2.5-0.3,3.5-1.4c1.1-1.1,1.4-2.1,1.4-3.5
			V86.1c0-1.4-0.4-2.4-1.4-3.5s-2.1-1.4-3.5-1.4h-53.5V62.7h57.8c1.4,0,2.4-0.3,3.5-1.4c1-1,1.4-2.1,1.4-3.5v-22
			c0-1.4-0.3-2.5-1.4-3.5c-1.1-1-2.1-1.4-3.5-1.4h-91.4c-1.4,0-2.4,0.3-3.5,1.4c-1.1,1-1.4,2.1-1.4,3.5v121.1c0,1.4,0.3,2.4,1.4,3.5
			c1.1,1.1,2.1,1.4,3.5,1.4h92.8c1.4,0,2.4-0.4,3.5-1.4c1.1-1.1,1.4-2.1,1.4-3.5v-21.7C1128.6,134.1,1128.2,132.7,1127.2,131.6z"/>
	</g>
</g>
<g>
	<path class="st0" d="M1594,17.4c-2.4,4.2-4.3,9.7-5.2,10.9c-2.9,5.7-6.1,11.4-9.4,18c-10.6,20-22.5,44.1-28.2,58.4
		c-7.4,9-18.4,21.7-21.3,21.3c-1.2,0-1.6-1.6-1.6-4.1c0.4-5.7,7.8-22.1,17.6-40.9c10.6-20.4,9.4-13.9-6.9-28.2
		c-5.3,10.6-10.2,21.3-14.7,30.7c-11.4,17.6-28.2,41.7-33.5,41.7c-8.6,0,14.7-53.9,31.5-61.7c3.7-1.6,6.5-2,10.2-1.2
		c-2.5-6.5-9-12.7-17.2-12.7c-13.9-0.4-35.1,29.8-40.5,53.5c-6.5,9.4-16.8,22.1-20,22.1c-1.2,0-2-1.2-1.6-4.1
		c0-5.7,6.1-22.5,15.5-41.7c9.4-21.3,8.6-14.7-8.6-27.8V52c-8.6,20-16.8,40.5-20.4,53.1c-9.4,12.7-26.6,22.1-37.2,22.1
		c-3.7,0-5.7-1.6-4.9-7.4c2.5-16.8,20-57.2,33.1-57.6c0.4,0,0.8,0,1.2,0c-0.4,1.6-1.2,4.1-2,5.7c-2.9,8.6-4.9,9.8-4.9,12.7
		c0,2,1.2,4.1,6.1,8.2c6.9-7.8,10.2-15.1,10.6-20.4c0-2-0.8-3.7-2-5.3c0-0.4-0.8-1.2-1.2-1.6c-5.7-6.5-12.7-11.9-19.6-11.4
		c-14.3,0.4-34.3,34.3-37.2,58.4c-6.9,10.2-23.7,21.7-35.6,22.9c-3.7,0.4-5.7-1.2-5.3-6.9c0.4-4.1,1.6-9.4,3.3-15.5
		c19.6,0,42.1-18.8,39.6-36.4c-0.8-3.3-2-5.3-4.9-8.6c-4.9-4.5-11.9-10.6-19.6-10.2c-14.3,1.2-33.5,36.4-34.7,60.9
		c-0.8,17.6,9,23.3,18.8,22.1c15.1-1.6,29.8-11.9,38.4-22.9c0.4,13.9,9,18.8,18,18c13.5-0.8,29-9,38.4-19.6c0,0.8,0,1.6,0,2.5
		c0,11,10.6,14.7,16.3,14.7c4.1,0,12.7-10.2,20-20c-0.8,11.4,3.3,19.6,15.5,19.6c6.1,0,17.2-15.1,27.4-29.8
		c-2.5,6.1-4.1,11.4-4.1,14.7c-0.4,11.4,10.2,15.5,15.9,15.9c3.7,0,11.9-7.8,19.2-16.8c-0.4,0.8-0.4,1.6-0.4,2
		c-0.8,11.4,9.4,15.9,15.5,15.9c4.1,0.4,14.7-8.2,23.7-17.6c-0.4,1.2-0.8,2.9-0.8,3.7c-1.2,11,9,15.9,14.7,16.8
		c3.7,0.4,11-6.1,18.4-13.5c0,0.4,0,0.8,0,0.8c-0.4,3.7,1.6,6.9,4.9,9.8c4.1,3.7,9.4,6.1,15.5,6.9c14.3,1.6,29-3.3,31.9-15.5
		c4.5-18-9.8-45-4.5-54.4c3.3-5.3,13.5-2.9,18.8,0c-0.8,2-1.6,3.7-2.9,6.1c-3.7,7.4-4.9,6.5-5.7,9.8c-0.8,2.5-0.4,4.5,4.5,9.8
		c7.8-6.9,11.4-11.4,12.3-16.8c0.8-4.9-2.5-9.8-6.9-12.3c-9-5.3-33.5-7.8-38.8,1.2c-6.9,11,10.2,37.2,5.7,55.2
		c-1.6,7.8-7.4,12.3-16.8,11.4c-3.3-0.4-5.3-1.2-8.2-3.7c4.1-14.7,15.1-15.9,2.9-26.6c-2,1.6-4.5,4.5-6.9,7.4
		c-7.8,8.6-18.8,19.6-22.1,19.2c-1.2,0-1.6-1.6-1.2-4.1c0.8-5.7,8.6-21.3,20-39.6c11.9-20,10.2-13.5-5.7-28.6c0,0,0,0-0.4,0.4
		c-10.2,18-20,36.4-25.3,49c-7.8,8.6-22.1,20.4-25.3,20.4c-1.2,0-1.6-1.6-1.6-4.1c0.4-5.7,28.6-61.3,40.1-80.1
		c5.7-9.8,8.9-13.4,11.8-19.9c0,0,2-4.9-1-7c-2.9-2.2-16-9.1-16-9.1L1594,17.4z M1371.5,65c0.8,0,1.2,0,2,0
		c-2,14.3-11,37.6-28.6,40.1C1351,87.1,1362.1,65.9,1371.5,65z"/>
	<path class="st0" d="M1247.6,125.9c-3.7-27.8-40.5-60.5-38-76.8c1.6-9.4,22.1-10.6,31.1-9.4c0.8,4.1,0,7.8-0.4,11.9
		c-2,11-2.9,10.6,8.6,17.2c4.9-12.7,14.7-30.2-9-35.1c-16.3-3.3-51.5,4.9-54.4,20.4c-3.7,19.6,36,49,40.5,77.2
		c2,11.9-4.9,22.1-18.4,24.9c-27.4,6.1-25.3-33.1-8.6-42.9c-22.1-9.8-36,12.7-30.7,29.8c6.5,20.4,28.6,23.3,46.2,19.6
		C1234.5,158.6,1249.7,145.6,1247.6,125.9z"/>
	<path class="st0" d="M1264.8,155.8c2-5.7,3.3-11.9,4.9-18c2.5-9.8,6.1-21.3,9-31.9c7.8-18.4,19.6-40.9,24.9-41.7
		c8.2-1.2-8.2,55.6-22.1,66.2c-2.9,2-5.7,3.3-9.4,2.9c3.7,6.1,10.6,10.6,18.4,9.4c19.6-2.9,53.9-88.3,13.5-83.8
		c-5.3,0.8-12.7,11.4-19.2,24.1c2.9-11.4-0.4-8.6-15.9-17.2c-5.3,20.8-16.3,63.8-22.1,90.3c-40.9,9.4-46.6,43.7-24.1,40.1
		c16.3-2.5,32.3-19.2,38.8-33.1c55.6-3.7,118.9,20,152.4,9c19.6-6.5,26.6-22.1,18-38.4C1401.3,167.2,1317.1,152.1,1264.8,155.8z
		 M1222.7,191.3c-14.7,0,3.3-24.1,22.9-26.2C1241.1,183.2,1229.2,191.3,1222.7,191.3z"/>
	<path class="st0" d="M1488.7,36.4c1.2-6.5-2.9-12.3-9.4-12.3c-6.1,0-12.3,5.7-13.5,12.3c-0.8,6.9,3.3,12.3,9.4,12.3
		C1481.8,48.7,1487.9,43.4,1488.7,36.4z"/>
	<path class="st0" d="M1622.8,43.8c-1.6,6.5,2,12.3,8.2,13.1c6.1,0.8,12.7-4.1,14.3-10.6c2-6.5-1.6-12.7-7.8-13.5
		C1631.4,31.9,1624.4,37.3,1622.8,43.8z"/>
	<path class="st0" d="M1766.6,124.7c-0.4-15.9-6.9-31.9-2-38.8c3.7-5.3,13.5-2,18.8,0.8c-0.8,1.6-2,3.7-3.3,6.1
		c-4.1,6.9-5.3,6.5-6.5,9.4c-0.8,2.5-0.4,4.5,3.7,10.2c8.6-6.1,12.3-10.2,13.5-15.5c1.2-4.5-2-9.8-6.1-12.7
		c-8.6-6.1-33.5-9.8-39.6-1.6c-5.7,8.2,1.2,23.3,2.9,38.8c-9.4-1.2-17.2,0-22.5,2.5h-0.4c0,0-0.4,0-0.4,0.4
		c-2.9,1.6-4.9,3.3-6.5,5.3c-8.6,6.5-21.7,15.9-22.5,11.4c0-0.8,0-1.6,0.4-2.9c0.8-4.9,18-32.3,35.6-56.4c3.7,0.8,6.9,1.2,10.6,2
		c2-1.2,3.7-2.9,6.5-6.5c-4.1-0.8-8.2-1.6-12.3-2.5c0.8-1.2,1.6-2.5,2.5-3.7c10.6-14.7,5.3-12.3-6.1-24.9
		c-4.9,6.9-10.6,15.5-17.2,24.9c-3.3-0.4-6.1-1.2-9.4-1.6c-1.6,0.4-2.5,2-6.1,6.5c3.7,0.4,7.4,1.2,11,1.6
		c-14.7,22.1-28.6,45-29.4,51.5c-1.2,6.5,2,11.4,5.3,14.3c2.5,1.6,6.5,4.1,9.4,3.3c4.5-0.4,11.9-4.9,19.2-10.2
		c-0.8,7.4,4.9,15.1,16.3,17.2c15.1,2.9,29.4-1.2,33.5-13.1c0.8-2.9,1.2-7.4,1.2-11c15.5,4.9,25.3,18,11,27.4
		c-25.7,17.2-81.7-15.5-122.6-7.4c-20.8,3.7-36.8,18-25.3,39.6c43.3-50.7,110.3,0.4,148.3-22.9
		C1801,152.1,1792.4,132.5,1766.6,124.7z M1747,138.2c-2.5,7.4-9,11.9-14.7,10.6c-12.7-2-13.9-25.7,15.5-22.5
		C1748.2,130,1748.2,134.9,1747,138.2z"/>
</g>
</svg>
