<?xml version="1.0" encoding="utf-8"?>
<!-- Generator: Adobe Illustrator 26.0.3, SVG Export Plug-In . SVG Version: 6.00 Build 0)  -->
<svg version="1.1" id="Layer_1" xmlns="http://www.w3.org/2000/svg" xmlns:xlink="http://www.w3.org/1999/xlink" x="0px" y="0px"
	 viewBox="0 0 792 504" style="enable-background:new 0 0 792 504;" xml:space="preserve">
<style type="text/css">
	.st0{fill:#03A63C;}
	.st1{fill:#F27405;}
</style>
<g>
	<g>
		<path class="st0" d="M336.9,65.4c0.9-0.9,1.4-2.1,1.4-3.3V38c0-1.4-0.5-2.4-1.4-3.3c-0.9-0.9-2.1-1.4-3.3-1.4H232
			c-1.4,0-2.4,0.5-3.3,1.4c-0.9,0.9-1.4,2.1-1.4,3.3v24.3c0,1.4,0.5,2.4,1.4,3.3c0.9,0.9,2.1,1.4,3.3,1.4h31.1v88.2
			c0,1.4,0.5,2.4,1.4,3.3c0.9,0.9,2.1,1.4,3.3,1.4h30c1.4,0,2.4-0.5,3.3-1.4c0.9-0.9,1.4-2.1,1.4-3.3V66.8h31.1
			C334.8,66.8,336,66.4,336.9,65.4z"/>
		<path class="st0" d="M564,153.8l-39.2-59.1l36-55.4c0.3-0.6,0.6-1.3,0.6-2c0-1-0.3-2.1-1.2-2.8c-0.8-0.8-1.7-1.1-2.8-1.1h-31
			c-2.1,0-3.6,0.6-4.7,1.6c-1,1-1.8,2-2.3,2.5L501.7,65l-17.1-27.5c-0.3-0.6-1-1.5-2.2-2.5c-1-1-2.6-1.6-4.7-1.6H445
			c-1,0-2.1,0.3-2.8,1.1c-0.8,0.8-1.1,1.7-1.1,2.8c0,0.6,0.2,1.3,0.7,2L477,95l-28.8,43.7l-35.8-99.8c-0.3-1.4-1.1-2.6-2.3-3.8
			s-3-1.8-5.3-1.8h-33.1c-2.2,0-3.9,0.6-5.2,1.8c-1.3,1.2-2.1,2.4-2.4,3.8L323,154.5c-0.2,0.3-0.3,0.8-0.3,1.3c0,1,0.3,2.1,1.1,2.8
			c0.8,0.8,1.7,1.2,2.8,1.2h27.8c2.2,0,3.7-0.5,4.6-1.5c0.9-0.9,1.5-1.8,1.8-2.8l5.6-15.2H410l5.6,15.2c0.3,0.8,1,1.7,2,2.8
			c0.9,0.9,2.4,1.5,4.5,1.5h19.3h8.5h24.3c2.1,0,3.6-0.5,4.7-1.5c1-1,1.7-1.8,2-2.4l19.3-29.4l19.9,29.4c0.2,0.6,0.9,1.4,2,2.4
			c1,1,2.6,1.5,4.7,1.5h33.9c0.9,0,1.8-0.3,2.6-1.2c0.8-0.8,1.1-1.7,1.1-2.8c0-0.2,0-0.5-0.1-0.8C564.5,154.6,564.2,154.2,564,153.8
			z M374.7,109.8l13.3-40.6l13.6,40.6H374.7z"/>
	</g>
	<g>
		<path class="st0" d="M140.8,252.3c6.2-3.3,11.3-8.1,15.2-13.9c3.9-5.9,5.8-13.1,5.8-21.5c0-13.3-4.7-23.8-14-31.3
			c-9.3-7.5-22.2-11.2-38.5-11.2H57.7c-1.1,0-2.3,0.5-3.2,1.4c-0.9,0.9-1.5,2.1-1.5,3.3v117.1c0,1.4,0.5,2.4,1.5,3.3
			c0.9,0.9,2.1,1.4,3.2,1.4h29.4c1.4,0,2.4-0.5,3.3-1.4c0.9-0.9,1.4-2.1,1.4-3.3v-37.4h13l18.1,37.3c0.3,0.9,1.2,2.1,2.3,3.1
			c1.2,1.1,3,1.7,5.3,1.7h30.6c1,0,2-0.3,2.8-1.2c0.7-0.8,1-1.7,1-2.8c0-0.6-0.2-1.3-0.6-2L140.8,252.3z M118.4,225.5
			c-2.1,2.3-5.2,3.6-9.4,3.6H91.8v-25.3H109c4.4,0,7.5,1.3,9.4,3.8c2,2.5,3,5.6,3,9.2C121.5,220.2,120.5,223.1,118.4,225.5z"/>
		<path class="st0" d="M271.8,270.3h-57.3V252h51.9c1.4,0,2.4-0.5,3.4-1.4c0.9-0.9,1.5-2.1,1.5-3.3v-19.6c0-1.4-0.5-2.4-1.5-3.3
			c-0.9-0.9-2.1-1.4-3.4-1.4h-51.9v-17.9h55.8c1.4,0,2.4-0.5,3.5-1.5c0.9-0.9,1.5-2.1,1.5-3.2v-21.3c0-1.4-0.5-2.4-1.5-3.3
			c-0.9-0.9-2.1-1.4-3.5-1.4h-88.5c-1.1,0-2.3,0.5-3.2,1.4c-0.9,0.9-1.5,2.1-1.5,3.3v117.2c0,1.4,0.5,2.4,1.5,3.3
			c0.9,0.9,2.1,1.4,3.2,1.4h90c1.4,0,2.4-0.5,3.5-1.4c0.9-0.9,1.5-2.1,1.5-3.3v-21.2c0-1.4-0.5-2.4-1.5-3.5
			C274.3,270.7,273.2,270.3,271.8,270.3z"/>
		<path class="st0" d="M386.6,234.8c2.1-0.9,4.3-2.5,6.6-4.6c2.3-2.1,4.3-4.7,5.9-7.9c1.6-3.2,2.4-6.8,2.4-10.9
			c0-7.9-1.7-14.6-5.1-20c-3.3-5.4-8.5-9.5-15.5-12.4c-7-2.9-16-4.4-26.9-4.4h-57.6c-1.1,0-2.3,0.5-3.2,1.4
			c-0.9,0.9-1.5,2.1-1.5,3.3v117c0,1.4,0.5,2.4,1.5,3.3c0.9,0.9,2.1,1.4,3.2,1.4h59.5c10.4,0,19.1-1.5,26.3-4.5
			c7.1-3,12.6-7.4,16.4-13.2c3.8-5.8,5.6-12.9,5.6-21.3c0-6.2-1.7-11.8-5.3-16.7C395.3,240.4,391.3,236.8,386.6,234.8z M330.3,201.7
			h19.3c3.9,0,6.7,1,8.5,3.2c1.8,2.2,2.8,4.7,2.8,7.6s-0.9,5.4-2.8,7.6c-1.8,2.2-4.6,3.2-8.5,3.2h-19.3V201.7z M360.6,269.9
			c-2,2.4-4.9,3.7-9.1,3.7h-21.2v-23.7h21.2c3.9,0,6.8,1.2,8.9,3.6c2.1,2.3,3.1,5.1,3.1,8.2C363.5,264.7,362.4,267.5,360.6,269.9z"
			/>
		<path class="st0" d="M495.1,180.1c-0.3-1.4-1.1-2.6-2.3-3.8c-1.1-1.2-3-1.8-5.3-1.8h-33.1c-2.2,0-3.9,0.6-5.2,1.8
			c-1.3,1.1-2.1,2.4-2.4,3.8l-41.2,115.6c-0.2,0.3-0.3,0.8-0.3,1.3c0,1,0.3,2.1,1.1,2.8c0.8,0.8,1.7,1.1,2.8,1.1h27.8
			c2.2,0,3.7-0.5,4.6-1.5c0.9-0.9,1.5-1.8,1.8-2.8l5.6-15.2h43.6l5.6,15.2c0.3,0.8,1,1.7,2,2.8c0.9,0.9,2.4,1.5,4.5,1.5h27.8
			c1,0,2.1-0.3,2.8-1.1c0.8-0.8,1.2-1.7,1.2-2.8c0-0.5-0.1-0.9-0.2-1.3L495.1,180.1z M457.5,251.1l13.3-40.6l13.6,40.6H457.5z"/>
		<path class="st0" d="M627.2,174.5H525.6c-1.4,0-2.4,0.5-3.3,1.4c-0.9,0.9-1.4,2.1-1.4,3.3v24.3c0,1.4,0.5,2.4,1.4,3.3
			c0.9,0.9,2.1,1.4,3.3,1.4h31.1v88.1c0,1.4,0.5,2.4,1.4,3.3s2.1,1.4,3.3,1.4h30c1.4,0,2.4-0.5,3.3-1.4c0.9-0.9,1.4-2.1,1.4-3.3V208
			h31.1c1.4,0,2.4-0.5,3.3-1.4c0.9-0.9,1.4-2.1,1.4-3.3v-24.3c0-1.4-0.5-2.4-1.4-3.3C629.7,174.9,628.5,174.5,627.2,174.5z"/>
		<path class="st0" d="M737.4,271.6c-0.9-0.9-2.1-1.5-3.4-1.5h-57.3v-18.3h51.9c1.4,0,2.4-0.5,3.5-1.4c0.9-0.9,1.5-2.1,1.5-3.3
			v-19.5c0-1.4-0.5-2.4-1.5-3.3c-0.9-0.9-2.1-1.4-3.5-1.4h-51.9v-17.9h55.8c1.4,0,2.4-0.5,3.5-1.5c0.9-0.9,1.5-2.1,1.5-3.2V179
			c0-1.4-0.5-2.4-1.5-3.3c-0.9-0.9-2.1-1.4-3.5-1.4h-88.5c-1.2,0-2.3,0.5-3.2,1.4c-0.9,0.9-1.5,2.1-1.5,3.3v117.3
			c0,1.4,0.5,2.4,1.5,3.3c0.9,0.9,2.1,1.4,3.2,1.4h89.9c1.4,0,2.4-0.5,3.5-1.4c0.9-0.9,1.5-2.1,1.5-3.3v-21.2
			C738.8,273.7,738.4,272.7,737.4,271.6z"/>
	</g>
</g>
<g>
	<path class="st1" d="M341.7,73.5c-2.4,1.7-5.2,2.6-8.3,2.6h-21.7v78.8c0,3.8-1.4,7.2-4.1,10c-0.1,0.1-0.1,0.1-0.2,0.1h9.5l0,0
		c-2.5-2.5-3.9-5.9-3.9-9.4c0-1.7,0.3-3.5,1.1-5.1L341.7,73.5z M317.1,90.3h14l-14,39.4V90.3z"/>
	<path class="st1" d="M410.9,164.8c-1.8-1.8-3.1-3.7-3.9-5.6l-0.1-0.5l-3.3-9.1h-30.5l-3.4,9.4c-0.8,2-2.1,3.7-3.7,5.5
		c-0.3,0.3-0.7,0.7-1,1c7.6,0.7,14.1,2.2,19.7,4.5c8.7,3.7,15.5,9.1,19.9,16.2c4.3,6.9,6.4,15.3,6.4,25c0,5.5-1.1,10.7-3.4,15.2
		c-1.5,3-3.2,5.6-5.3,7.9c1.6,1.6,3.1,3.4,4.5,5.3c2.4,3.3,4.3,7,5.4,10.9l26.2-73.6c0.8-2.8,2.4-5.4,4.8-7.6
		c0.1-0.1,0.3-0.3,0.5-0.5h-21.4C417.4,169.1,413.7,167.6,410.9,164.8z M411.3,239.2c-0.3-0.5-0.7-1-1-1.5c0.2-0.5,0.5-0.8,0.7-1.3
		c2.5-5.1,3.9-10.8,3.9-16.9c0-1,0-2.1-0.1-3c0.2-1.7,0.3-3.3,0.3-5.2c0-10.5-2.4-19.7-7.1-27.3c-4.9-7.8-12.3-13.9-22-17.9
		c-3-1.3-6.3-2.3-9.9-3.1V163h24.1l2.3,6.1l0.2,0.7c1,2.4,2.6,4.7,4.8,6.9c3.6,3.6,8.4,5.4,14,5.4h9.9L411.3,239.2z"/>
	<path class="st1" d="M153.1,255.3l14.6,26.6v-46.1c-1,2.8-2.4,5.3-4,7.7C160.8,248.1,157.3,252,153.1,255.3z"/>
	<path class="st1" d="M747.1,262L747.1,262c-1.3-1.3-2.6-2.3-4.1-3.1c2.6-3.2,4.1-7.2,4.1-11.6v-19.6c0-3.6-1-6.9-2.9-9.9
		c1-1.6,1.7-3.3,2.1-5.2c3.1-3.4,4.8-7.6,4.8-12.2v-21.3c0-5.1-2.1-9.9-5.8-13.3c-3.6-3.3-7.9-5.1-12.8-5.1h-88.5
		c-3,0-5.8,0.7-8.4,2.1c-2.5-1.4-5.4-2.1-8.5-2.1h-49.7c0.5-1.6,0.7-3.3,0.7-5.1c0-1.1-0.1-2.3-0.3-3.6c-0.3-1.5-0.8-3-1.6-4.5
		l-0.3-0.8L543.4,98l26.7-41.2l0.2-0.3c1.6-2.6,2.4-5.8,2.4-9c0-0.6,0-1.2-0.1-1.7c1.5-2.6,2.3-5.6,2.3-8.6c0-4.7-1.8-9.1-5.2-12.5
		c-3.3-3.3-7.8-5.2-12.4-5.2h-31c-7.2,0-11.8,3.1-14.4,5.6c-1.5,1.5-2.5,2.6-3.3,3.7l-6.8,10.5l-5.6-9.1c-0.9-1.6-2.3-3.1-4.1-5.1
		c-2.5-2.5-7.1-5.6-14.4-5.6H445c-4.7,0-9.2,1.8-12.5,5.2s-5.2,7.8-5.2,12.5c0,1.2,0.1,2.3,0.3,3.5l-2.2-6.1c-1-3.3-3-6.4-5.8-9.2
		c-2.6-2.6-7.4-5.8-15-5.8h-33.1c-7.2,0-12,3-14.6,5.6c-2.6,2.5-4.5,5.3-5.6,8.4c-0.8-3.2-2.4-6.2-4.8-8.6c-3.4-3.4-8-5.4-13-5.4
		H232c-4.9,0-9.5,2-13,5.4s-5.4,8-5.4,13v24.3c0,3.2,0.8,6.2,2.2,8.9v1.1c0,4.9,1.8,9.4,5.3,12.9c3.4,3.5,7.9,5.3,12.9,5.3h15.4
		v64.7c0,2.1,0.3,3.9,0.9,5.8h-68.4c-4.7,0-9.1,1.7-12.6,5.1c-3.7,3.4-5.8,8.3-5.8,13.3v2.6c-2.1-2.4-4.5-4.7-7.1-6.8
		c-11.7-9.4-27.6-14.3-47.1-14.3H57.7c-4.7,0-9.1,1.7-12.7,5.1c-3.7,3.4-5.8,8.3-5.8,13.3v117c0,4.8,1.8,9.4,5.3,12.8
		c0.9,2.9,2.5,5.4,4.8,7.5c3.5,3.2,7.8,4.9,12.4,4.9h29.1c4.9,0,9.4-1.8,12.9-5.3c3.4-3.5,5.3-7.9,5.3-12.9v-4.5l1.3,2.8
		c0.3,0.8,0.7,1.5,1.2,2.2l2.3,4.8c1.2,2.6,2.9,5.1,5.3,7.4c2.6,2.5,7.2,5.4,14.5,5.4h30.1c3.7,0,7.2-1.1,10.1-3.3
		c3.1,2.2,6.6,3.3,10.4,3.3h88.9c4.5,0,8.7-1.6,12.2-4.5c3.5,3,7.5,4.5,12,4.5H356c12,0,22.5-1.8,31.2-5.5c2.3-0.9,4.5-2.1,6.7-3.3
		c0.8,1.4,1.7,2.5,2.9,3.7c3.3,3.3,7.7,5.2,12.3,5.2h27.5c7.5,0,12-3.1,14.5-5.8c2-2.2,3.4-4.3,4.5-6.6l2.5-6.8h24.1l2.3,6.1
		l0.2,0.7c1,2.4,2.6,4.7,4.8,6.9c1.3,1.3,2.8,2.4,4.5,3.2c-2.1,3.8-4.7,8.9-5.4,9.9c-2.3,4.6-5.1,9.7-7.8,14.7
		c-9,16.7-18.6,36.6-23.5,48.5c-6,7.5-15.3,17.8-17.7,17.8c-1.1,0-1.5-1.5-1.4-3.6c0.3-4.6,6.4-18.2,14.7-33.9
		c9-17.1,7.8-11.6-5.9-23.3c-4.4,8.9-8.6,17.6-12.2,25.5c-9.7,14.4-23.2,34.5-27.7,34.5c-7,0,12.2-44.6,26-51.2
		c3-1.4,5.3-1.8,8.5-0.9c-2-5.4-7.2-10.4-14.3-10.6c-11.6-0.3-29,24.8-33.4,44.3c-5.5,7.8-14,18.4-16.6,18.4c-1,0-1.6-1.1-1.5-3.3
		c0-4.6,5.2-18.5,12.8-34.6c7.8-17.5,7-12.2-7.2-23c0,0.1-0.1,0.2-0.1,0.2c-7,16.4-13.9,33.4-16.9,44.2
		c-7.8,10.6-21.9,18.2-30.7,18.2c-3,0-4.7-1.5-4-6c2-14,16.7-47.3,27.3-47.6c0.5,0,0.7,0.1,1,0.1c-0.3,1.5-0.9,3.2-1.6,4.8
		c-2.4,7.1-3.9,8-4.1,10.6c-0.1,1.7,1.2,3.6,5.1,6.7c5.8-6.6,8.5-12.4,8.9-16.8c0-1.6-0.7-2.9-1.7-4.5c-0.1-0.3-0.6-0.9-1-1.3
		c-4.7-5.3-10.4-9.9-16.2-9.7c-11.7,0.5-28.5,28.4-30.7,48.4c-5.9,8.4-19.7,18.1-29.6,18.9c-3.1,0.3-4.9-0.9-4.4-5.6
		c0.3-3.3,1.3-7.7,2.6-12.6c16.2,0,34.7-15.6,32.8-30.4c-0.6-2.6-1.6-4.6-4.1-7.1c-3.9-3.8-10-8.9-16.2-8.3
		c-11.8,0.9-27.9,30.2-28.9,50.4c-0.7,14.5,7.6,19.2,15.6,18.3c12.5-1.4,24.8-10,32-18.9c0.5,11.4,7.6,15.4,14.8,14.9
		c11.2-0.7,23.9-7.6,31.9-16.3c-0.1,0.8-0.1,1.5-0.1,2.2c0,9.3,8.9,12.4,13.7,12.3c3.5-0.1,10.5-8.3,16.6-16.6
		c-0.8,9.4,2.6,16.4,13,16.4c5.2,0,14.4-12.4,22.7-24.6c-2,4.9-3.3,9.3-3.4,12.2c-0.5,9.5,8.3,13,13,13.2c3.1,0.1,9.7-6.4,15.9-13.8
		c-0.2,0.7-0.3,1.4-0.3,1.8c-0.7,9.4,7.8,13.1,12.9,13.3c3.2,0.2,12.3-6.9,19.5-14.4c-0.3,1.2-0.6,2.2-0.7,3.1
		c-1,9.2,7.5,13.2,12.2,13.7c3,0.2,9.1-5.1,15.1-11.3c0,0.2-0.1,0.6-0.1,0.8c-0.2,3.1,1.4,5.8,3.9,8.1c3.3,3.2,7.8,5.2,12.9,5.8
		c11.7,1.4,24.2-2.5,26.6-12.9c3.8-14.9-8.3-37.3-3.8-45.1c2.8-4.4,11.2-2.2,15.5-0.1c-0.6,1.5-1.5,3-2.4,5.2c-3,6-4,5.6-4.7,8.1
		c-0.6,2.1-0.2,3.7,3.8,8.2c6.4-5.6,9.4-9.5,10.1-13.8c0.7-4.3-2.2-8.3-5.9-10.2c-7.4-4.5-27.7-6.3-32.3,1.1
		c-5.9,9.1,8.4,30.8,4.8,45.7c-1.3,6.4-6.2,10.3-13.9,9.4c-2.8-0.3-4.5-1-6.8-3.2c3.5-12.1,12.5-13.2,2.5-22.1
		c-1.7,1.5-3.8,3.7-5.6,6.2c-6.4,7.1-15.6,16.2-18.2,16c-0.9-0.1-1.4-1.4-1-3.4c0.6-4.6,7.2-17.8,16.6-33
		c9.8-16.4,8.3-11.3-4.7-23.7c-0.1,0.1-0.1,0.1-0.1,0.2c-8.4,14.8-16.8,30-21.2,40.5c-6.4,7.2-18.4,17.1-20.9,16.9
		c-1.2-0.1-1.5-1.3-1.2-3.2c0.2-4.8,23.8-50.7,33.1-66.4c4.7-7.9,9.4-15.2,11.7-20.6h19.4c4.6,0,9.1-1.8,12.3-5.2
		c0.6-0.6,1.2-1.3,1.6-1.8c0.5,0.6,0.9,1.1,1.5,1.7c3.5,3.5,7.9,5.3,12.9,5.3h29.7c4.9,0,9.4-1.8,12.9-5.3c2.8-2.8,4.5-6.3,5.1-10.2
		c1.8-2.9,2.9-6.3,2.9-9.8v-66.5h13v73.6c0,5.1,2.1,9.8,5.8,13.2c3.4,3.2,7.8,4.9,12.4,4.9H730c4.8,0,9.2-1.7,12.7-5.1
		c2.3-2.1,3.9-4.7,4.8-7.5c3.3-3.5,5.3-7.9,5.3-12.8v-21.2C752.5,270.1,750.7,265.5,747.1,262z M307.8,360.3c0.6,0,1.1-0.1,1.7,0.1
		c-1.8,11.7-9,31.2-23.6,33.4C290.9,378.6,300.2,360.9,307.8,360.3z M748.2,296.2c0,3.9-1.6,7.5-4.4,10.1c-2.8,2.5-6.1,3.9-9.8,3.9
		h-89.9c-3.6,0-6.9-1.4-9.7-3.9c-2.9-2.6-4.4-6.2-4.4-10.1v-79.1c-0.9,0.2-1.8,0.2-2.8,0.2h-21.7v78.9c0,3.8-1.4,7.2-4.1,10
		c-2.6,2.6-6.1,4.1-9.9,4.1h-30c-3.8,0-7.2-1.4-9.9-4.1c-2.6-2.6-4.1-6.1-4.1-10v-78.8h-21.7c-3,0-5.9-0.9-8.2-2.5l27.8,78
		c0.5,1.4,0.7,2.8,0.7,4.3c0,3.6-1.4,6.9-3.9,9.4c-2.5,2.5-5.9,3.9-9.4,3.9H505c-4.6,0-8.4-1.4-11.2-4.1c-1.8-1.8-3.1-3.7-3.9-5.6
		l-0.1-0.3l-3.3-9.1H456l-3.4,9.4c-0.8,2-2.1,3.7-3.7,5.5c-2.8,2.9-6.6,4.4-11.4,4.4h-27.8c-3.6,0-6.9-1.4-9.4-3.9
		c-2.1-2.1-3.3-4.6-3.8-7.4c-3.2,2.4-6.7,4.4-10.6,6c-8.3,3.4-18.4,5.3-29.9,5.3h-59.5c-3.6,0-6.9-1.4-9.7-3.9
		c-0.9-0.9-1.8-2-2.4-3.1c-0.7,1.1-1.5,2.2-2.4,3.1c-2.8,2.5-6.1,3.9-9.8,3.9h-89.9c-3.6,0-6.9-1.4-9.7-3.9c-0.3-0.3-0.7-0.7-0.9-1
		c-0.2,0.2-0.3,0.5-0.6,0.7c-2.5,2.6-5.9,4.1-9.5,4.1H131c-6,0-9.7-2.3-11.7-4.3c-2.1-2-3.6-4-4.5-6.2l-13.2-27.1v23.3
		c0,3.8-1.4,7.2-4.1,10c-2.6,2.6-6.1,4.1-9.9,4.1H58.1c-3.6,0-6.9-1.4-9.7-3.9c-2.9-2.6-4.4-6.2-4.4-10.1V179.2
		c0-3.9,1.6-7.5,4.4-10.1c2.6-2.5,6-3.9,9.7-3.9h51.5c18.5,0,33.5,4.5,44.4,13.2c6.6,5.3,11.3,11.7,14.1,19.2v-18.4
		c0-3.9,1.6-7.5,4.4-10.1c2.6-2.5,6-3.9,9.7-3.9H258c-0.1,0-0.1-0.1-0.2-0.1c-2.6-2.6-4.1-6.1-4.1-10V76.3h-21.7
		c-3.8,0-7.2-1.4-9.9-4.1c-2.6-2.6-4.1-6.1-4.1-10V38c0-3.8,1.4-7.2,4.1-10c2.6-2.6,6.1-4.1,10-4.1h101.5c3.8,0,7.2,1.4,10,4.1
		c2.6,2.6,4.1,6.1,4.1,9.9v19.3l7.6-21.4c0.8-2.8,2.4-5.3,4.8-7.6c2.1-2,5.9-4.4,11.6-4.4h33.1c6,0,9.8,2.4,11.8,4.5
		c2.3,2.3,3.8,4.8,4.6,7.6l29.3,81.9l15.2-23l-32-50.7c-1.5-2.2-2.2-4.6-2.2-7c0-3.6,1.4-6.9,3.9-9.4s5.9-3.9,9.4-3.9h32.7
		c5.8,0,9.3,2.4,11.3,4.4c1.6,1.6,2.8,3,3.6,4.3l9.3,15L512,31.4c0.7-0.9,1.7-2,3-3.3c2-2,5.5-4.4,11.3-4.4h31
		c3.6,0,6.8,1.4,9.4,3.9c2.5,2.5,3.9,5.9,3.9,9.4c0,2.4-0.7,4.7-1.8,6.8l-0.1,0.2l-32.7,50.4l36.2,54.5l0.2,0.5
		c0.6,1.3,1,2.3,1.3,3.4c0.2,1,0.2,1.8,0.2,2.8c0,3.6-1.4,6.9-3.9,9.4h57c3.1,0,6,0.9,8.4,2.8c2.4-1.8,5.3-2.8,8.4-2.8h88.6
		c3.7,0,7.1,1.4,9.8,3.9c2.9,2.6,4.4,6.3,4.4,10.1v21.3c0,3.7-1.5,7.1-4.1,9.9c-2.5,2.5-5.8,4-9.3,4.1c1.8,0.7,3.6,1.7,5.1,3.1
		c2.9,2.6,4.4,6.3,4.4,10.1v19.6c0,3.9-1.6,7.5-4.4,10.1c-1.8,1.7-3.9,2.9-6.2,3.4h1.8c3.8,0,7.2,1.5,10,4.1l0,0
		c2.8,2.8,4.1,6.2,4.1,10v21.4H748.2z M541.2,229.8v38.4l-13.8-38.4L541.2,229.8L541.2,229.8z M438.1,70.2l19,30l-5.3,8.1
		L438.1,70.2z"/>
	<path class="st1" d="M512,160.4l-11.6-17.2l-11.3,17.2c-0.8,1.5-2,3-3.7,4.6c-0.1,0-0.1,0.1-0.2,0.1h2.3c6,0,9.8,2.4,11.8,4.5
		c2.3,2.3,3.8,4.8,4.6,7.6l7.6,21.2v-19.3c0-3.8,1.4-7.2,4-9.9c0.9-0.9,1.8-1.6,2.9-2.2c-1.2-0.7-2.2-1.4-2.9-2.1
		C514,163.3,512.8,161.9,512,160.4z"/>
	<path class="st1" d="M205.1,410.9c-2.9-23.2-33.6-50-31.5-63.8c1.3-7.7,18.3-8.7,25.8-7.8c0.6,3.4,0,6.3-0.5,9.7
		c-1.6,9.1-2.5,9,7.1,14.1c4-10.6,12.3-25.1-7.5-29.1c-13.6-2.8-42.7,4.1-45,17c-3,16.2,29.8,40.8,33.3,64.2
		c1.6,10-4,18.2-15.3,20.7c-22.5,4.9-20.9-27.5-7.1-35.4c-18.3-8.3-29.9,10.6-25.5,24.7c5.3,16.9,23.7,19.2,38.3,16.2
		C194.5,437.8,207.1,427,205.1,410.9z"/>
	<path class="st1" d="M219.6,435.4c1.6-4.8,2.6-9.9,3.9-14.8c2-8,4.9-17.6,7.4-26.3c6.6-15.3,16.3-33.9,20.8-34.4
		c6.9-0.9-6.8,46-18.3,55.1c-2.3,1.8-4.7,2.9-7.9,2.4c3,5.1,8.7,8.7,15.4,7.7c16.3-2.5,44.6-73.3,11.2-69.2
		c-4.4,0.6-10.5,9.5-15.9,20.1c2.3-9.4-0.3-7.2-13.1-14.1c-4.4,17.1-13.7,52.9-18.3,75c-34,7.8-38.8,36.2-19.9,33.1
		c13.5-2.2,26.9-15.8,32.2-27.6c46.1-3.1,98.6,16.4,126.5,7.4c16.1-5.3,21.9-18.4,14.7-31.7C332.6,444.9,262.9,432.3,219.6,435.4z
		 M184.6,464.8c-12.3-0.1,2.9-19.9,19-21.9C199.8,458.2,190.1,465,184.6,464.8z"/>
	<path class="st1" d="M405.2,336.6c0.9-5.5-2.5-10.2-7.7-10.2c-5.2,0-10.2,4.7-11,10.4c-0.7,5.6,2.8,10.1,7.9,10
		C399.3,346.6,404.4,342.1,405.2,336.6z"/>
	<path class="st1" d="M516.3,342.6c-1.3,5.5,1.6,10.3,6.8,10.9c4.9,0.6,10.5-3.3,12-8.9c1.5-5.4-1.4-10.5-6.6-11
		C523.3,332.9,517.7,337.1,516.3,342.6z"/>
	<path class="st1" d="M635.5,409.9c-0.5-13.2-5.9-26.3-1.8-32.1c3-4.4,11.3-1.6,15.5,0.8c-0.8,1.5-1.6,2.9-2.8,5.1
		c-3.5,5.8-4.4,5.3-5.3,7.7c-0.8,2.2-0.3,3.9,3.1,8.3c7-4.9,10.2-8.6,11.2-13c0.9-3.9-1.6-8.2-5.1-10.6c-7.2-5.1-27.6-8.2-32.7-1.3
		c-4.9,6.8,0.9,19.3,2.2,32.3c-7.9-1-14.1-0.1-18.5,2c-0.1,0-0.2,0-0.3,0c-0.1,0.1-0.2,0.1-0.2,0.2c-2.3,1.1-4,2.6-5.3,4.4
		c-7.1,5.5-17.9,13.1-18.7,9.3c0-0.7,0-1.5,0.2-2.5c0.8-4.1,15.1-26.9,29.4-46.8c3,0.6,5.9,1.1,8.9,1.6c1.8-0.9,3.2-2.5,5.3-5.3
		c-3.3-0.7-6.7-1.3-10-2c0.5-1.2,1.3-2.1,2.1-3c8.9-12.2,4.3-10.4-5.2-20.8c-3.9,5.6-8.9,13-14.1,20.7c-2.5-0.5-5.2-0.9-7.7-1.3
		c-1.4,0.3-2.1,1.5-5.1,5.5c3.1,0.5,6.1,1,9.2,1.5c-12.2,18.2-23.6,37.4-24.6,42.7c-1,5.5,1.5,9.5,4.6,11.7c2,1.4,5.4,3.3,7.7,2.9
		c3.8-0.5,9.9-4.1,15.8-8.5c-0.7,6.1,3.9,12.5,13.6,14.3c12.4,2.4,24.3-0.9,27.6-11c0.8-2.4,1-6.2,1.2-9.2
		c12.9,3.9,21.2,14.9,9,22.9c-21.3,14.1-67.8-12.8-101.7-6.1c-17.2,3.1-30.4,14.9-21,32.7c36.1-42.2,91.7,0.2,122.9-18.9
		C663.8,432.5,657,416.2,635.5,409.9z M619.4,420.9c-1.8,6.2-7.6,9.7-12.1,8.9c-10.5-1.8-11.4-21.2,13-18.7
		C620.4,414,620.2,418.4,619.4,420.9z"/>
</g>
</svg>
